<svg id="visual" viewBox="0 0 1920 200" width="1920" height="200" xmlns="http://www.w3.org/2000/svg" xmlns:xlink="http://www.w3.org/1999/xlink" version="1.1"><rect x="0" y="0" width="1920" height="200" fill="#172434"></rect><path d="M0 80L45.7 82.5C91.3 85 182.7 90 274.2 92.2C365.7 94.3 457.3 93.7 548.8 89C640.3 84.3 731.7 75.7 823 67.2C914.3 58.7 1005.7 50.3 1097 47.7C1188.3 45 1279.7 48 1371.2 49C1462.7 50 1554.3 49 1645.8 50.2C1737.3 51.3 1828.7 54.7 1874.3 56.3L1920 58L1920 201L1874.3 201C1828.7 201 1737.3 201 1645.8 201C1554.3 201 1462.7 201 1371.2 201C1279.7 201 1188.3 201 1097 201C1005.7 201 914.3 201 823 201C731.7 201 640.3 201 548.8 201C457.3 201 365.7 201 274.2 201C182.7 201 91.3 201 45.7 201L0 201Z" fill="#ffffff"></path><path d="M0 97L45.7 92.2C91.3 87.3 182.7 77.7 274.2 76C365.7 74.3 457.3 80.7 548.8 85C640.3 89.3 731.7 91.7 823 97C914.3 102.3 1005.7 110.7 1097 114C1188.3 117.3 1279.7 115.7 1371.2 109.2C1462.7 102.7 1554.3 91.3 1645.8 86.2C1737.3 81 1828.7 82 1874.3 82.5L1920 83L1920 201L1874.3 201C1828.7 201 1737.3 201 1645.8 201C1554.3 201 1462.7 201 1371.2 201C1279.7 201 1188.3 201 1097 201C1005.7 201 914.3 201 823 201C731.7 201 640.3 201 548.8 201C457.3 201 365.7 201 274.2 201C182.7 201 91.3 201 45.7 201L0 201Z" fill="#e1e3e5"></path><path d="M0 125L45.7 120C91.3 115 182.7 105 274.2 105.3C365.7 105.7 457.3 116.3 548.8 115.8C640.3 115.3 731.7 103.7 823 105.5C914.3 107.3 1005.7 122.7 1097 125.8C1188.3 129 1279.7 120 1371.2 114.7C1462.7 109.3 1554.3 107.7 1645.8 108.2C1737.3 108.7 1828.7 111.3 1874.3 112.7L1920 114L1920 201L1874.3 201C1828.7 201 1737.3 201 1645.8 201C1554.3 201 1462.7 201 1371.2 201C1279.7 201 1188.3 201 1097 201C1005.7 201 914.3 201 823 201C731.7 201 640.3 201 548.8 201C457.3 201 365.7 201 274.2 201C182.7 201 91.3 201 45.7 201L0 201Z" fill="#c3c7cb"></path><path d="M0 152L45.7 147.8C91.3 143.7 182.7 135.3 274.2 134.2C365.7 133 457.3 139 548.8 141.5C640.3 144 731.7 143 823 139.3C914.3 135.7 1005.7 129.3 1097 130.8C1188.3 132.3 1279.7 141.7 1371.2 146C1462.7 150.3 1554.3 149.7 1645.8 145.7C1737.3 141.7 1828.7 134.3 1874.3 130.7L1920 127L1920 201L1874.3 201C1828.7 201 1737.3 201 1645.8 201C1554.3 201 1462.7 201 1371.2 201C1279.7 201 1188.3 201 1097 201C1005.7 201 914.3 201 823 201C731.7 201 640.3 201 548.8 201C457.3 201 365.7 201 274.2 201C182.7 201 91.3 201 45.7 201L0 201Z" fill="#a7acb2"></path><path d="M0 165L45.7 164.3C91.3 163.7 182.7 162.3 274.2 163.3C365.7 164.3 457.3 167.7 548.8 167.5C640.3 167.3 731.7 163.7 823 163.7C914.3 163.7 1005.7 167.3 1097 170.5C1188.3 173.7 1279.7 176.3 1371.2 176.3C1462.7 176.3 1554.3 173.7 1645.8 170C1737.3 166.3 1828.7 161.7 1874.3 159.3L1920 157L1920 201L1874.3 201C1828.7 201 1737.3 201 1645.8 201C1554.3 201 1462.7 201 1371.2 201C1279.7 201 1188.3 201 1097 201C1005.7 201 914.3 201 823 201C731.7 201 640.3 201 548.8 201C457.3 201 365.7 201 274.2 201C182.7 201 91.3 201 45.7 201L0 201Z" fill="#8b929a"></path></svg>